<?xml version="1.0" encoding="utf-8"?>
<!-- Generator: Adobe Illustrator 19.2.1, SVG Export Plug-In . SVG Version: 6.00 Build 0)  -->
<svg version="1.1" id="レイヤー_1" xmlns="http://www.w3.org/2000/svg" xmlns:xlink="http://www.w3.org/1999/xlink" x="0px"
	 y="0px" viewBox="0 0 162.6 34.1" style="enable-background:new 0 0 162.6 34.1;" xml:space="preserve">
<style type="text/css">
	.st0{fill:#3E3A39;}
</style>
<g>
	<path class="st0" d="M8.8,0c4.7,0,6.9,0.5,9,2.1c2.2,1.7,3.6,4.8,3.6,8c0,3.2-1.4,6.4-3.4,8c-2.2,1.7-4.5,2.3-8.8,2.3H3.8v13.2H0V0
		H8.8z M3.8,17h5.3c2.8,0,4.5-0.3,6.2-1.4c1.4-0.9,2.5-3.1,2.5-5.4c0-2.4-1-4.5-2.5-5.5C13.6,3.6,11.8,3.3,9,3.3H3.8V17z"/>
	<path class="st0" d="M25.1,0h8.7c5.2,0,7.7,0.6,9.4,1.7c2.7,1.6,4.6,5.2,4.6,9c0,2.3-0.6,4.7-2,6.6c-2,2.7-4.4,3.3-7.5,3.7
		l8.3,12.5h-4.1l-9.5-14.6h1.1c2.4,0,5.6,0,7.4-1.7c1.8-1.7,2.5-3.8,2.5-6.2c0-2.5-1.2-5.1-3.3-6.5c-1.7-1.1-3.8-1.2-6.8-1.2h-5.2
		v30.2h-3.8V0z"/>
	<path class="st0" d="M97.1,33.5h-3.3v-5c-1.9,3.7-5.6,5.7-10,5.7c-7.9,0-12.6-6.2-12.6-12.8c0-7.1,5.2-12.8,12.6-12.8
		c5.2,0,8.8,3,10,5.8V9.1h3.3V33.5z M74.5,21.3c0,4.4,3.1,9.7,9.8,9.7c4.3,0,7.5-2.5,8.8-5.9c0.5-1.2,0.8-2.5,0.8-3.8
		c0-1.4-0.2-2.7-0.8-3.9c-1.4-3.3-4.6-5.8-8.9-5.8C78.6,11.5,74.5,15.9,74.5,21.3L74.5,21.3z"/>
	<path class="st0" d="M100.9,0h3.3v9.1V14c2-3.4,5.7-5.5,9.9-5.6c6.9,0,12.5,5.2,12.5,12.8c0,7.3-5.2,12.9-12.6,12.9
		c-4.6,0-8.1-2.2-10-5.7v5h-3.2V0z M123.4,21.3c0-5.6-4.2-9.7-9.6-9.7c-5.6,0-9.6,4.3-9.6,9.7c0,5.3,3.8,9.8,9.5,9.8
		C120.1,31,123.4,26,123.4,21.3L123.4,21.3z"/>
	<path class="st0" d="M130.9,0h3.3v33.5h-3.3V0z"/>
	<path class="st0" d="M140.4,22.3c0.2,6.1,5.4,9,9.5,9c3.8,0,6.8-1.9,8.4-5h3.5c-1.1,2.6-2.8,4.6-4.9,5.9c-2,1.3-4.4,2-6.9,2
		c-8.5,0-12.8-6.7-12.8-12.8c0-7.1,5.5-12.9,12.8-12.9c3.4,0,6.6,1.2,8.9,3.4c2.8,2.7,4.2,6.5,3.8,10.4H140.4z M159.2,19.6
		c-0.2-4.3-4.3-8.4-9.4-8.3c-5.2,0-9.1,3.8-9.5,8.3H159.2z"/>
	<polygon class="st0" points="53.5,0 53.5,5.6 56.9,5.6 56.9,3.3 63.4,3.3 63.4,33.5 67.2,33.5 67.2,3.3 73.8,3.3 73.8,5.6 
		77.1,5.6 77.1,0 	"/>
</g>
</svg>
